<?xml version="1.0" encoding="utf-8" standalone="no"?>
<!DOCTYPE svg PUBLIC "-//W3C//DTD SVG 1.1//EN"
  "http://www.w3.org/Graphics/SVG/1.1/DTD/svg11.dtd">
<svg xmlns:xlink="http://www.w3.org/1999/xlink" width="719.420313pt" height="377.39625pt" viewBox="0 0 719.420313 377.39625" xmlns="http://www.w3.org/2000/svg" version="1.1">
 <metadata>
  <rdf:RDF xmlns:dc="http://purl.org/dc/elements/1.1/" xmlns:cc="http://creativecommons.org/ns#" xmlns:rdf="http://www.w3.org/1999/02/22-rdf-syntax-ns#">
   <cc:Work>
    <dc:type rdf:resource="http://purl.org/dc/dcmitype/StillImage"/>
    <dc:date>2026-01-05T12:44:42.426666</dc:date>
    <dc:format>image/svg+xml</dc:format>
    <dc:creator>
     <cc:Agent>
      <dc:title>Matplotlib v3.5.3, https://matplotlib.org/</dc:title>
     </cc:Agent>
    </dc:creator>
   </cc:Work>
  </rdf:RDF>
 </metadata>
 <defs>
  <style type="text/css">*{stroke-linejoin: round; stroke-linecap: butt}</style>
 </defs>
 <g id="figure_1">
  <g id="patch_1">
   <path d="M 0 377.39625 
L 719.420313 377.39625 
L 719.420313 0 
L 0 0 
z
" style="fill: #ffffff"/>
  </g>
  <g id="axes_1">
   <g id="patch_2">
    <path d="M 42.620313 339.84 
L 712.220313 339.84 
L 712.220313 7.2 
L 42.620313 7.2 
z
" style="fill: #ffffff"/>
   </g>
   <g id="PolyCollection_1">
    <path d="M 92.323528 324.72 
L 91.835279 324.72 
L 91.8194 323.499862 
L 91.807425 322.279725 
L 91.790994 321.059587 
L 91.763561 319.839449 
L 91.723907 318.619311 
L 91.676717 317.399174 
L 91.629981 316.179036 
L 91.590919 314.958898 
L 91.562844 313.738761 
L 91.544494 312.518623 
L 91.531679 311.298485 
L 91.519771 310.078347 
L 91.505297 308.85821 
L 91.485939 307.638072 
L 91.459624 306.417934 
L 91.424155 305.197797 
L 91.378221 303.977659 
L 91.323049 302.757521 
L 91.262824 301.537383 
L 91.202694 300.317246 
L 91.145164 299.097108 
L 91.087435 297.87697 
L 91.021794 296.656833 
L 90.938837 295.436695 
L 90.830868 294.216557 
L 90.69257 292.996419 
L 90.518406 291.776282 
L 90.299218 290.556144 
L 90.021442 289.336006 
L 89.670285 288.115869 
L 89.234889 286.895731 
L 88.711862 285.675593 
L 88.105006 284.455455 
L 87.421776 283.235318 
L 86.668553 282.01518 
L 85.84632 280.795042 
L 84.947431 279.574905 
L 83.95472 278.354767 
L 82.845362 277.134629 
L 81.601344 275.914491 
L 80.224862 274.694354 
L 78.752621 273.474216 
L 77.261323 272.254078 
L 75.859192 271.033941 
L 74.663888 269.813803 
L 73.773185 268.593665 
L 73.23912 267.373527 
L 73.056676 266.15339 
L 73.172855 264.933252 
L 73.512395 263.713114 
L 74.007988 262.492977 
L 74.621185 261.272839 
L 75.346314 260.052701 
L 76.198957 258.832563 
L 77.196977 257.612426 
L 78.343281 256.392288 
L 79.616731 255.17215 
L 80.973306 253.952013 
L 82.355615 252.731875 
L 83.706083 251.511737 
L 84.978308 250.291599 
L 86.142629 249.071462 
L 87.185085 247.851324 
L 88.102196 246.631186 
L 88.895414 245.411049 
L 89.568129 244.190911 
L 90.125732 242.970773 
L 90.577094 241.750635 
L 90.935196 240.530498 
L 91.215603 239.31036 
L 91.433244 238.090222 
L 91.599302 236.870084 
L 91.720072 235.649947 
L 91.798451 234.429809 
L 91.837104 233.209671 
L 91.841459 231.989534 
L 91.820894 230.769396 
L 91.787613 229.549258 
L 91.753885 228.32912 
L 91.72912 227.108983 
L 91.718147 225.888845 
L 91.721322 224.668707 
L 91.73612 223.44857 
L 91.759197 222.228432 
L 91.787928 221.008294 
L 91.820863 219.788156 
L 91.857216 218.568019 
L 91.89593 217.347881 
L 91.934978 216.127743 
L 91.971337 214.907606 
L 92.001587 213.687468 
L 92.02277 212.46733 
L 92.033116 211.247192 
L 92.03246 210.027055 
L 92.022441 208.806917 
L 92.006487 207.586779 
L 91.989419 206.366642 
L 91.976453 205.146504 
L 91.971721 203.926366 
L 92.187086 203.926366 
L 92.187086 203.926366 
L 92.182354 205.146504 
L 92.169388 206.366642 
L 92.15232 207.586779 
L 92.136366 208.806917 
L 92.126347 210.027055 
L 92.125691 211.247192 
L 92.136037 212.46733 
L 92.15722 213.687468 
L 92.187469 214.907606 
L 92.223829 216.127743 
L 92.262877 217.347881 
L 92.301591 218.568019 
L 92.337944 219.788156 
L 92.370878 221.008294 
L 92.399609 222.228432 
L 92.422687 223.44857 
L 92.437485 224.668707 
L 92.44066 225.888845 
L 92.429686 227.108983 
L 92.404921 228.32912 
L 92.371194 229.549258 
L 92.337912 230.769396 
L 92.317348 231.989534 
L 92.321702 233.209671 
L 92.360356 234.429809 
L 92.438735 235.649947 
L 92.559505 236.870084 
L 92.725562 238.090222 
L 92.943204 239.31036 
L 93.223611 240.530498 
L 93.581713 241.750635 
L 94.033075 242.970773 
L 94.590678 244.190911 
L 95.263393 245.411049 
L 96.056611 246.631186 
L 96.973722 247.851324 
L 98.016177 249.071462 
L 99.180498 250.291599 
L 100.452724 251.511737 
L 101.803192 252.731875 
L 103.185501 253.952013 
L 104.542076 255.17215 
L 105.815525 256.392288 
L 106.96183 257.612426 
L 107.95985 258.832563 
L 108.812493 260.052701 
L 109.537622 261.272839 
L 110.150819 262.492977 
L 110.646412 263.713114 
L 110.985952 264.933252 
L 111.102131 266.15339 
L 110.919687 267.373527 
L 110.385622 268.593665 
L 109.494919 269.813803 
L 108.299614 271.033941 
L 106.897483 272.254078 
L 105.406186 273.474216 
L 103.933945 274.694354 
L 102.557463 275.914491 
L 101.313445 277.134629 
L 100.204087 278.354767 
L 99.211375 279.574905 
L 98.312487 280.795042 
L 97.490253 282.01518 
L 96.737031 283.235318 
L 96.0538 284.455455 
L 95.446945 285.675593 
L 94.923918 286.895731 
L 94.488521 288.115869 
L 94.137365 289.336006 
L 93.859589 290.556144 
L 93.640401 291.776282 
L 93.466237 292.996419 
L 93.327938 294.216557 
L 93.21997 295.436695 
L 93.137013 296.656833 
L 93.071372 297.87697 
L 93.013643 299.097108 
L 92.956113 300.317246 
L 92.895982 301.537383 
L 92.835758 302.757521 
L 92.780586 303.977659 
L 92.734652 305.197797 
L 92.699182 306.417934 
L 92.672868 307.638072 
L 92.65351 308.85821 
L 92.639036 310.078347 
L 92.627127 311.298485 
L 92.614313 312.518623 
L 92.595962 313.738761 
L 92.567888 314.958898 
L 92.528826 316.179036 
L 92.48209 317.399174 
L 92.4349 318.619311 
L 92.395246 319.839449 
L 92.367813 321.059587 
L 92.351382 322.279725 
L 92.339407 323.499862 
L 92.323528 324.72 
z
" clip-path="url(#p38cdd4569f)" style="fill: #e8b7b7; fill-opacity: 0.7"/>
   </g>
   <g id="PolyCollection_2">
    <path d="M 206.913195 294.631969 
L 205.518339 294.631969 
L 205.369166 293.284592 
L 205.223772 291.937214 
L 205.090548 290.589837 
L 204.976755 289.242459 
L 204.887245 287.895081 
L 204.823237 286.547704 
L 204.781435 285.200326 
L 204.753822 283.852949 
L 204.728428 282.505571 
L 204.691196 281.158193 
L 204.628801 279.810816 
L 204.531767 278.463438 
L 204.396724 277.116061 
L 204.226515 275.768683 
L 204.027496 274.421306 
L 203.80467 273.073928 
L 203.55662 271.72655 
L 203.272701 270.379173 
L 202.934113 269.031795 
L 202.518703 267.684418 
L 202.007525 266.33704 
L 201.390403 264.989663 
L 200.668201 263.642285 
L 199.851013 262.294907 
L 198.953229 260.94753 
L 197.98766 259.600152 
L 196.961433 258.252775 
L 195.875897 256.905397 
L 194.7315 255.558019 
L 193.536487 254.210642 
L 192.31596 252.863264 
L 191.116378 251.515887 
L 190.001376 250.168509 
L 189.038217 248.821132 
L 188.279037 247.473754 
L 187.744613 246.126376 
L 187.418342 244.778999 
L 187.253951 243.431621 
L 187.194222 242.084244 
L 187.19304 240.736866 
L 187.231809 239.389489 
L 187.324111 238.042111 
L 187.507583 236.694733 
L 187.826916 235.347356 
L 188.314734 233.999978 
L 188.977348 232.652601 
L 189.790265 231.305223 
L 190.704684 229.957845 
L 191.662224 228.610468 
L 192.612126 227.26309 
L 193.524565 225.915713 
L 194.395633 224.568335 
L 195.243095 223.220958 
L 196.095466 221.87358 
L 196.978886 220.526202 
L 197.90629 219.178825 
L 198.87192 217.831447 
L 199.852148 216.48407 
L 200.811449 215.136692 
L 201.711023 213.789314 
L 202.517156 212.441937 
L 203.207128 211.094559 
L 203.771748 209.747182 
L 204.214778 208.399804 
L 204.550222 207.052427 
L 204.798504 205.705049 
L 204.982393 204.357671 
L 205.123331 203.010294 
L 205.238668 201.662916 
L 205.340188 200.315539 
L 205.434024 198.968161 
L 205.521762 197.620784 
L 205.602228 196.273406 
L 205.673367 194.926028 
L 205.733714 193.578651 
L 205.783195 192.231273 
L 205.823258 190.883896 
L 205.856509 189.536518 
L 205.886097 188.18914 
L 205.915049 186.841763 
L 205.945689 185.494385 
L 205.979201 184.147008 
L 206.015432 182.79963 
L 206.052992 181.452253 
L 206.089668 180.104875 
L 206.123044 178.757497 
L 206.151106 177.41012 
L 206.172624 176.062742 
L 206.187184 174.715365 
L 206.194934 173.367987 
L 206.19623 172.02061 
L 206.191414 170.673232 
L 206.18086 169.325854 
L 206.165283 167.978477 
L 206.146146 166.631099 
L 206.125895 165.283722 
L 206.107769 163.936344 
L 206.095149 162.588966 
L 206.090621 161.241589 
L 206.340913 161.241589 
L 206.340913 161.241589 
L 206.336385 162.588966 
L 206.323765 163.936344 
L 206.305639 165.283722 
L 206.285388 166.631099 
L 206.266252 167.978477 
L 206.250674 169.325854 
L 206.24012 170.673232 
L 206.235304 172.02061 
L 206.2366 173.367987 
L 206.24435 174.715365 
L 206.25891 176.062742 
L 206.280428 177.41012 
L 206.30849 178.757497 
L 206.341866 180.104875 
L 206.378542 181.452253 
L 206.416102 182.79963 
L 206.452333 184.147008 
L 206.485845 185.494385 
L 206.516485 186.841763 
L 206.545437 188.18914 
L 206.575025 189.536518 
L 206.608276 190.883896 
L 206.648339 192.231273 
L 206.69782 193.578651 
L 206.758167 194.926028 
L 206.829306 196.273406 
L 206.909773 197.620784 
L 206.99751 198.968161 
L 207.091346 200.315539 
L 207.192866 201.662916 
L 207.308203 203.010294 
L 207.449142 204.357671 
L 207.633031 205.705049 
L 207.881312 207.052427 
L 208.216756 208.399804 
L 208.659786 209.747182 
L 209.224406 211.094559 
L 209.914378 212.441937 
L 210.720511 213.789314 
L 211.620085 215.136692 
L 212.579386 216.48407 
L 213.559614 217.831447 
L 214.525244 219.178825 
L 215.452648 220.526202 
L 216.336068 221.87358 
L 217.188439 223.220958 
L 218.035901 224.568335 
L 218.906969 225.915713 
L 219.819408 227.26309 
L 220.76931 228.610468 
L 221.72685 229.957845 
L 222.641269 231.305223 
L 223.454186 232.652601 
L 224.1168 233.999978 
L 224.604619 235.347356 
L 224.923951 236.694733 
L 225.107423 238.042111 
L 225.199725 239.389489 
L 225.238494 240.736866 
L 225.237312 242.084244 
L 225.177583 243.431621 
L 225.013192 244.778999 
L 224.686921 246.126376 
L 224.152497 247.473754 
L 223.393317 248.821132 
L 222.430158 250.168509 
L 221.315156 251.515887 
L 220.115574 252.863264 
L 218.895047 254.210642 
L 217.700034 255.558019 
L 216.555637 256.905397 
L 215.470101 258.252775 
L 214.443874 259.600152 
L 213.478305 260.94753 
L 212.580521 262.294907 
L 211.763334 263.642285 
L 211.041131 264.989663 
L 210.424009 266.33704 
L 209.912831 267.684418 
L 209.497421 269.031795 
L 209.158833 270.379173 
L 208.874914 271.72655 
L 208.626864 273.073928 
L 208.404038 274.421306 
L 208.205019 275.768683 
L 208.03481 277.116061 
L 207.899767 278.463438 
L 207.802733 279.810816 
L 207.740338 281.158193 
L 207.703106 282.505571 
L 207.677712 283.852949 
L 207.650099 285.200326 
L 207.608297 286.547704 
L 207.544289 287.895081 
L 207.454779 289.242459 
L 207.340986 290.589837 
L 207.207762 291.937214 
L 207.062368 293.284592 
L 206.913195 294.631969 
z
" clip-path="url(#p38cdd4569f)" style="fill: #bfd3e6; fill-opacity: 0.7"/>
   </g>
   <g id="PolyCollection_3">
    <path d="M 321.176279 278.411595 
L 319.527982 278.411595 
L 319.358326 276.775559 
L 319.182404 275.139523 
L 319.002158 273.503487 
L 318.81948 271.86745 
L 318.636759 270.231414 
L 318.456554 268.595378 
L 318.280209 266.959341 
L 318.106033 265.323305 
L 317.928188 263.687269 
L 317.737288 262.051233 
L 317.522807 260.415196 
L 317.276274 258.77916 
L 316.993515 257.143124 
L 316.674549 255.507088 
L 316.320941 253.871051 
L 315.931863 252.235015 
L 315.500942 250.598979 
L 315.015673 248.962942 
L 314.459899 247.326906 
L 313.818375 245.69087 
L 313.081501 244.054834 
L 312.248409 242.418797 
L 311.327609 240.782761 
L 310.335693 239.146725 
L 309.295343 237.510688 
L 308.233712 235.874652 
L 307.181281 234.238616 
L 306.170313 232.60258 
L 305.231921 230.966543 
L 304.391696 229.330507 
L 303.665238 227.694471 
L 303.055758 226.058435 
L 302.555386 224.422398 
L 302.15017 222.786362 
L 301.826896 221.150326 
L 301.578988 219.514289 
L 301.409326 217.878253 
L 301.329403 216.242217 
L 301.355739 214.606181 
L 301.505135 212.970144 
L 301.790063 211.334108 
L 302.214909 209.698072 
L 302.773488 208.062036 
L 303.448472 206.425999 
L 304.213385 204.789963 
L 305.037231 203.153927 
L 305.890689 201.51789 
L 306.751765 199.881854 
L 307.608812 198.245818 
L 308.459933 196.609782 
L 309.309391 194.973745 
L 310.162763 193.337709 
L 311.022693 191.701673 
L 311.886326 190.065636 
L 312.7447 188.4296 
L 313.583809 186.793564 
L 314.386958 185.157528 
L 315.137862 183.521491 
L 315.823806 181.885455 
L 316.437902 180.249419 
L 316.97968 178.613383 
L 317.453808 176.977346 
L 317.867557 175.34131 
L 318.228167 173.705274 
L 318.54119 172.069237 
L 318.810263 170.433201 
L 319.038 168.797165 
L 319.227199 167.161129 
L 319.381618 165.525092 
L 319.505972 163.889056 
L 319.605354 162.25302 
L 319.684568 160.616984 
L 319.7478 158.980947 
L 319.798802 157.344911 
L 319.841344 155.708875 
L 319.879514 154.072838 
L 319.917521 152.436802 
L 319.958956 150.800766 
L 320.005848 149.16473 
L 320.05802 147.528693 
L 320.113129 145.892657 
L 320.167449 144.256621 
L 320.217046 142.620584 
L 320.25889 140.984548 
L 320.29147 139.348512 
L 320.314813 137.712476 
L 320.330022 136.076439 
L 320.338629 134.440403 
L 320.342014 132.804367 
L 320.341059 131.168331 
L 320.336079 129.532294 
L 320.327017 127.896258 
L 320.313815 126.260222 
L 320.296876 124.624185 
L 320.277422 122.988149 
L 320.257624 121.352113 
L 320.240332 119.716077 
L 320.228471 118.08004 
L 320.224244 116.444004 
L 320.480017 116.444004 
L 320.480017 116.444004 
L 320.47579 118.08004 
L 320.463929 119.716077 
L 320.446638 121.352113 
L 320.426839 122.988149 
L 320.407386 124.624185 
L 320.390446 126.260222 
L 320.377245 127.896258 
L 320.368182 129.532294 
L 320.363202 131.168331 
L 320.362247 132.804367 
L 320.365633 134.440403 
L 320.37424 136.076439 
L 320.389448 137.712476 
L 320.412791 139.348512 
L 320.445372 140.984548 
L 320.487215 142.620584 
L 320.536813 144.256621 
L 320.591132 145.892657 
L 320.646242 147.528693 
L 320.698413 149.16473 
L 320.745306 150.800766 
L 320.786741 152.436802 
L 320.824748 154.072838 
L 320.862918 155.708875 
L 320.90546 157.344911 
L 320.956462 158.980947 
L 321.019694 160.616984 
L 321.098907 162.25302 
L 321.19829 163.889056 
L 321.322643 165.525092 
L 321.477062 167.161129 
L 321.666262 168.797165 
L 321.893998 170.433201 
L 322.163071 172.069237 
L 322.476094 173.705274 
L 322.836704 175.34131 
L 323.250453 176.977346 
L 323.724581 178.613383 
L 324.266359 180.249419 
L 324.880455 181.885455 
L 325.566399 183.521491 
L 326.317304 185.157528 
L 327.120452 186.793564 
L 327.959562 188.4296 
L 328.817935 190.065636 
L 329.681569 191.701673 
L 330.541499 193.337709 
L 331.394871 194.973745 
L 332.244328 196.609782 
L 333.09545 198.245818 
L 333.952497 199.881854 
L 334.813572 201.51789 
L 335.66703 203.153927 
L 336.490877 204.789963 
L 337.255789 206.425999 
L 337.930774 208.062036 
L 338.489352 209.698072 
L 338.914198 211.334108 
L 339.199127 212.970144 
L 339.348522 214.606181 
L 339.374858 216.242217 
L 339.294936 217.878253 
L 339.125274 219.514289 
L 338.877365 221.150326 
L 338.554091 222.786362 
L 338.148875 224.422398 
L 337.648503 226.058435 
L 337.039023 227.694471 
L 336.312565 229.330507 
L 335.47234 230.966543 
L 334.533948 232.60258 
L 333.52298 234.238616 
L 332.470549 235.874652 
L 331.408918 237.510688 
L 330.368568 239.146725 
L 329.376652 240.782761 
L 328.455853 242.418797 
L 327.62276 244.054834 
L 326.885886 245.69087 
L 326.244363 247.326906 
L 325.688588 248.962942 
L 325.203319 250.598979 
L 324.772398 252.235015 
L 324.38332 253.871051 
L 324.029712 255.507088 
L 323.710746 257.143124 
L 323.427987 258.77916 
L 323.181454 260.415196 
L 322.966974 262.051233 
L 322.776073 263.687269 
L 322.598228 265.323305 
L 322.424052 266.959341 
L 322.247707 268.595378 
L 322.067503 270.231414 
L 321.884782 271.86745 
L 321.702104 273.503487 
L 321.521858 275.139523 
L 321.345936 276.775559 
L 321.176279 278.411595 
z
" clip-path="url(#p38cdd4569f)" style="fill: #c9e2c3; fill-opacity: 0.7"/>
   </g>
   <g id="PolyCollection_4">
    <path d="M 412.163439 273.820875 
L 411.159004 273.820875 
L 411.018034 271.888934 
L 410.853912 269.956993 
L 410.666919 268.025052 
L 410.459766 266.093111 
L 410.237974 264.16117 
L 410.009114 262.229229 
L 409.780817 260.297288 
L 409.558118 258.365347 
L 409.341218 256.433406 
L 409.124812 254.501465 
L 408.899526 252.569524 
L 408.655027 250.637583 
L 408.383375 248.705642 
L 408.080907 246.773701 
L 407.747516 244.84176 
L 407.383537 242.909819 
L 406.985747 240.977878 
L 406.544531 239.045937 
L 406.043734 237.113996 
L 405.46345 235.182055 
L 404.784816 233.250114 
L 403.995431 231.318173 
L 403.094236 229.386232 
L 402.095173 227.454291 
L 401.02886 225.52235 
L 399.941164 223.590409 
L 398.887437 221.658468 
L 397.92222 219.726527 
L 397.086364 217.794586 
L 396.395731 215.862645 
L 395.836363 213.930704 
L 395.3693 211.998763 
L 394.944478 210.066822 
L 394.519118 208.134881 
L 394.073793 206.20294 
L 393.620067 204.270999 
L 393.19713 202.339058 
L 392.85938 200.407117 
L 392.660266 198.475176 
L 392.638494 196.543235 
L 392.810657 194.611294 
L 393.171087 192.679353 
L 393.696916 190.747412 
L 394.355249 188.815471 
L 395.109949 186.88353 
L 395.926868 184.951589 
L 396.777337 183.019648 
L 397.640106 181.087707 
L 398.501828 179.155766 
L 399.356168 177.223825 
L 400.201809 175.291884 
L 401.039926 173.359943 
L 401.871814 171.428002 
L 402.697132 169.496061 
L 403.512977 167.56412 
L 404.313715 165.632179 
L 405.091454 163.700238 
L 405.837083 161.768297 
L 406.541673 159.836356 
L 407.197874 157.904415 
L 407.80078 155.972474 
L 408.347898 154.040533 
L 408.838344 152.108592 
L 409.271884 150.176651 
L 409.648545 148.24471 
L 409.96907 146.312768 
L 410.235817 144.380827 
L 410.453353 142.448886 
L 410.628181 140.516945 
L 410.767695 138.585004 
L 410.878904 136.653063 
L 410.967601 134.721122 
L 411.038247 132.789181 
L 411.09447 130.85724 
L 411.139766 128.925299 
L 411.178002 126.993358 
L 411.213433 125.061417 
L 411.250195 123.129476 
L 411.291437 121.197535 
L 411.338475 119.265594 
L 411.39039 117.333653 
L 411.44432 115.401712 
L 411.496374 113.469771 
L 411.542815 111.53783 
L 411.581031 109.605889 
L 411.609965 107.673948 
L 411.629962 105.742007 
L 411.642217 103.810066 
L 411.648128 101.878125 
L 411.64879 99.946184 
L 411.644788 98.014243 
L 411.636288 96.082302 
L 411.623382 94.150361 
L 411.606555 92.21842 
L 411.587076 90.286479 
L 411.567159 88.354538 
L 411.549711 86.422597 
L 411.537721 84.490656 
L 411.533443 82.558715 
L 411.789 82.558715 
L 411.789 82.558715 
L 411.784723 84.490656 
L 411.772732 86.422597 
L 411.755284 88.354538 
L 411.735367 90.286479 
L 411.715889 92.21842 
L 411.699061 94.150361 
L 411.686156 96.082302 
L 411.677655 98.014243 
L 411.673653 99.946184 
L 411.674315 101.878125 
L 411.680226 103.810066 
L 411.692481 105.742007 
L 411.712478 107.673948 
L 411.741412 109.605889 
L 411.779628 111.53783 
L 411.82607 113.469771 
L 411.878123 115.401712 
L 411.932053 117.333653 
L 411.983968 119.265594 
L 412.031006 121.197535 
L 412.072248 123.129476 
L 412.10901 125.061417 
L 412.144442 126.993358 
L 412.182677 128.925299 
L 412.227973 130.85724 
L 412.284196 132.789181 
L 412.354842 134.721122 
L 412.443539 136.653063 
L 412.554749 138.585004 
L 412.694262 140.516945 
L 412.86909 142.448886 
L 413.086626 144.380827 
L 413.353374 146.312768 
L 413.673898 148.24471 
L 414.050559 150.176651 
L 414.484099 152.108592 
L 414.974545 154.040533 
L 415.521664 155.972474 
L 416.124569 157.904415 
L 416.78077 159.836356 
L 417.48536 161.768297 
L 418.230989 163.700238 
L 419.008729 165.632179 
L 419.809466 167.56412 
L 420.625311 169.496061 
L 421.450629 171.428002 
L 422.282517 173.359943 
L 423.120635 175.291884 
L 423.966275 177.223825 
L 424.820615 179.155766 
L 425.682337 181.087707 
L 426.545106 183.019648 
L 427.395575 184.951589 
L 428.212494 186.88353 
L 428.967194 188.815471 
L 429.625527 190.747412 
L 430.151356 192.679353 
L 430.511786 194.611294 
L 430.683949 196.543235 
L 430.662177 198.475176 
L 430.463063 200.407117 
L 430.125313 202.339058 
L 429.702377 204.270999 
L 429.24865 206.20294 
L 428.803325 208.134881 
L 428.377965 210.066822 
L 427.953143 211.998763 
L 427.486081 213.930704 
L 426.926712 215.862645 
L 426.236079 217.794586 
L 425.400223 219.726527 
L 424.435007 221.658468 
L 423.381279 223.590409 
L 422.293583 225.52235 
L 421.22727 227.454291 
L 420.228207 229.386232 
L 419.327013 231.318173 
L 418.537627 233.250114 
L 417.858994 235.182055 
L 417.278709 237.113996 
L 416.777912 239.045937 
L 416.336696 240.977878 
L 415.938906 242.909819 
L 415.574928 244.84176 
L 415.241536 246.773701 
L 414.939068 248.705642 
L 414.667417 250.637583 
L 414.422917 252.569524 
L 414.197631 254.501465 
L 413.981225 256.433406 
L 413.764325 258.365347 
L 413.541626 260.297288 
L 413.313329 262.229229 
L 413.084469 264.16117 
L 412.862677 266.093111 
L 412.655524 268.025052 
L 412.468531 269.956993 
L 412.304409 271.888934 
L 412.163439 273.820875 
z
" clip-path="url(#p38cdd4569f)" style="fill: #d6c8e0; fill-opacity: 0.7"/>
   </g>
   <g id="PolyCollection_5">
    <path d="M 457.756773 271.988355 
L 456.874761 271.988355 
L 456.756121 269.929384 
L 456.616902 267.870412 
L 456.454528 265.811441 
L 456.267678 263.752469 
L 456.057491 261.693498 
L 455.8281 259.634527 
L 455.586033 257.575555 
L 455.338543 255.516584 
L 455.091485 253.457612 
L 454.847642 251.398641 
L 454.606146 249.33967 
L 454.363058 247.280698 
L 454.112515 245.221727 
L 453.847646 243.162755 
L 453.560686 241.103784 
L 453.242344 239.044812 
L 452.881043 236.985841 
L 452.462817 234.92687 
L 451.972286 232.867898 
L 451.39452 230.808927 
L 450.717227 228.749955 
L 449.932876 226.690984 
L 449.040982 224.632013 
L 448.050987 222.573041 
L 446.985617 220.51407 
L 445.883186 218.455098 
L 444.796186 216.396127 
L 443.783983 214.337155 
L 442.899822 212.278184 
L 442.175798 210.219213 
L 441.611846 208.160241 
L 441.174439 206.10127 
L 440.807174 204.042298 
L 440.45029 201.983327 
L 440.061913 199.924356 
L 439.632691 197.865384 
L 439.188248 195.806413 
L 438.779261 193.747441 
L 438.464293 191.68847 
L 438.29304 189.629499 
L 438.296258 187.570527 
L 438.484378 185.511556 
L 438.852286 183.452584 
L 439.385592 181.393613 
L 440.064551 179.334641 
L 440.864699 177.27567 
L 441.755928 175.216699 
L 442.702683 173.157727 
L 443.66698 171.098756 
L 444.613998 169.039784 
L 445.518297 166.980813 
L 446.368135 164.921842 
L 447.166044 162.86287 
L 447.925297 160.803899 
L 448.663554 158.744927 
L 449.396005 156.685956 
L 450.130366 154.626984 
L 450.8651 152.568013 
L 451.590855 150.509042 
L 452.293894 148.45007 
L 452.959835 146.391099 
L 453.576397 144.332127 
L 454.134669 142.273156 
L 454.629252 140.214185 
L 455.057989 138.155213 
L 455.421751 136.096242 
L 455.724324 134.03727 
L 455.972034 131.978299 
L 456.172856 129.919327 
L 456.335104 127.860356 
L 456.466194 125.801385 
L 456.571946 123.742413 
L 456.656641 121.683442 
L 456.723628 119.62447 
L 456.776091 117.565499 
L 456.81762 115.506528 
L 456.852393 113.447556 
L 456.884908 111.388585 
L 456.919334 109.329613 
L 456.958663 107.270642 
L 457.003982 105.211671 
L 457.054183 103.152699 
L 457.106333 101.093728 
L 457.15659 99.034756 
L 457.201323 96.975785 
L 457.238001 94.916813 
L 457.265559 92.857842 
L 457.284215 90.798871 
L 457.294935 88.739899 
L 457.298839 86.680928 
L 457.296801 84.621956 
L 457.289359 82.562985 
L 457.276948 80.504014 
L 457.260304 78.445042 
L 457.240865 76.386071 
L 457.220936 74.327099 
L 457.20347 72.268128 
L 457.191468 70.209156 
L 457.187188 68.150185 
L 457.444346 68.150185 
L 457.444346 68.150185 
L 457.440066 70.209156 
L 457.428064 72.268128 
L 457.410598 74.327099 
L 457.390669 76.386071 
L 457.37123 78.445042 
L 457.354586 80.504014 
L 457.342175 82.562985 
L 457.334733 84.621956 
L 457.332695 86.680928 
L 457.336599 88.739899 
L 457.347319 90.798871 
L 457.365975 92.857842 
L 457.393533 94.916813 
L 457.430211 96.975785 
L 457.474944 99.034756 
L 457.525201 101.093728 
L 457.577351 103.152699 
L 457.627552 105.211671 
L 457.672871 107.270642 
L 457.7122 109.329613 
L 457.746626 111.388585 
L 457.779141 113.447556 
L 457.813914 115.506528 
L 457.855443 117.565499 
L 457.907906 119.62447 
L 457.974893 121.683442 
L 458.059588 123.742413 
L 458.16534 125.801385 
L 458.29643 127.860356 
L 458.458678 129.919327 
L 458.6595 131.978299 
L 458.90721 134.03727 
L 459.209783 136.096242 
L 459.573545 138.155213 
L 460.002282 140.214185 
L 460.496865 142.273156 
L 461.055137 144.332127 
L 461.671699 146.391099 
L 462.33764 148.45007 
L 463.040679 150.509042 
L 463.766434 152.568013 
L 464.501168 154.626984 
L 465.235529 156.685956 
L 465.96798 158.744927 
L 466.706237 160.803899 
L 467.46549 162.86287 
L 468.263399 164.921842 
L 469.113237 166.980813 
L 470.017536 169.039784 
L 470.964555 171.098756 
L 471.928852 173.157727 
L 472.875606 175.216699 
L 473.766835 177.27567 
L 474.566983 179.334641 
L 475.245942 181.393613 
L 475.779248 183.452584 
L 476.147157 185.511556 
L 476.335276 187.570527 
L 476.338494 189.629499 
L 476.167241 191.68847 
L 475.852273 193.747441 
L 475.443286 195.806413 
L 474.998843 197.865384 
L 474.569622 199.924356 
L 474.181245 201.983327 
L 473.82436 204.042298 
L 473.457095 206.10127 
L 473.019688 208.160241 
L 472.455736 210.219213 
L 471.731712 212.278184 
L 470.847551 214.337155 
L 469.835348 216.396127 
L 468.748348 218.455098 
L 467.645917 220.51407 
L 466.580547 222.573041 
L 465.590552 224.632013 
L 464.698658 226.690984 
L 463.914307 228.749955 
L 463.237014 230.808927 
L 462.659248 232.867898 
L 462.168717 234.92687 
L 461.750491 236.985841 
L 461.38919 239.044812 
L 461.070848 241.103784 
L 460.783889 243.162755 
L 460.519019 245.221727 
L 460.268476 247.280698 
L 460.025388 249.33967 
L 459.783892 251.398641 
L 459.540049 253.457612 
L 459.292991 255.516584 
L 459.045501 257.575555 
L 458.803434 259.634527 
L 458.574043 261.693498 
L 458.363856 263.752469 
L 458.177006 265.811441 
L 458.014632 267.870412 
L 457.875414 269.929384 
L 457.756773 271.988355 
z
" clip-path="url(#p38cdd4569f)" style="fill: #eed6b8; fill-opacity: 0.7"/>
   </g>
   <g id="PolyCollection_6">
    <path d="M 548.990959 268.945556 
L 548.258757 268.945556 
L 548.165168 266.670978 
L 548.055356 264.396399 
L 547.925775 262.121821 
L 547.772561 259.847242 
L 547.592489 257.572664 
L 547.384116 255.298086 
L 547.148801 253.023507 
L 546.89116 250.748929 
L 546.618663 248.47435 
L 546.340305 246.199772 
L 546.064679 243.925193 
L 545.797945 241.650615 
L 545.542186 239.376037 
L 545.294412 237.101458 
L 545.046206 234.82688 
L 544.784012 232.552301 
L 544.49014 230.277723 
L 544.144579 228.003144 
L 543.727493 225.728566 
L 543.221809 223.453988 
L 542.615062 221.179409 
L 541.900039 218.904831 
L 541.074673 216.630252 
L 540.142492 214.355674 
L 539.114875 212.081095 
L 538.014998 209.806517 
L 536.881375 207.531939 
L 535.767641 205.25736 
L 534.735962 202.982782 
L 533.844199 200.708203 
L 533.130486 198.433625 
L 532.60113 196.159046 
L 532.22739 193.884468 
L 531.953485 191.60989 
L 531.71364 189.335311 
L 531.452139 187.060733 
L 531.13909 184.786154 
L 530.776642 182.511576 
L 530.394677 180.236997 
L 530.039428 177.962419 
L 529.760804 175.687841 
L 529.603293 173.413262 
L 529.602131 171.138684 
L 529.782949 168.864105 
L 530.161505 166.589527 
L 530.741124 164.314948 
L 531.508217 162.04037 
L 532.428742 159.765792 
L 533.449203 157.491213 
L 534.504163 155.216635 
L 535.529169 152.942056 
L 536.475161 150.667478 
L 537.319181 148.392899 
L 538.067378 146.118321 
L 538.749227 143.843743 
L 539.4053 141.569164 
L 540.073242 139.294586 
L 540.776803 137.020007 
L 541.520988 134.745429 
L 542.293592 132.47085 
L 543.071077 130.196272 
L 543.82585 127.921694 
L 544.532497 125.647115 
L 545.171866 123.372537 
L 545.732889 121.097958 
L 546.212619 118.82338 
L 546.614894 116.548801 
L 546.948089 114.274223 
L 547.222481 111.999645 
L 547.447905 109.725066 
L 547.632326 107.450488 
L 547.781551 105.175909 
L 547.899853 102.901331 
L 547.990925 100.626752 
L 548.058651 98.352174 
L 548.107417 96.077596 
L 548.142061 93.803017 
L 548.167647 91.528439 
L 548.189226 89.25386 
L 548.211527 86.979282 
L 548.238489 84.704703 
L 548.272643 82.430125 
L 548.314554 80.155547 
L 548.362635 77.880968 
L 548.413544 75.60639 
L 548.463082 73.331811 
L 548.507273 71.057233 
L 548.543196 68.782654 
L 548.569338 66.508076 
L 548.585432 64.233498 
L 548.592033 61.958919 
L 548.590114 59.684341 
L 548.580888 57.409762 
L 548.565905 55.135184 
L 548.547259 52.860605 
L 548.527697 50.586027 
L 548.510411 48.311449 
L 548.498504 46.03687 
L 548.494265 43.762292 
L 548.755451 43.762292 
L 548.755451 43.762292 
L 548.751212 46.03687 
L 548.739305 48.311449 
L 548.722019 50.586027 
L 548.702457 52.860605 
L 548.683811 55.135184 
L 548.668828 57.409762 
L 548.659602 59.684341 
L 548.657683 61.958919 
L 548.664284 64.233498 
L 548.680378 66.508076 
L 548.706519 68.782654 
L 548.742443 71.057233 
L 548.786634 73.331811 
L 548.836172 75.60639 
L 548.887081 77.880968 
L 548.935162 80.155547 
L 548.977073 82.430125 
L 549.011227 84.704703 
L 549.038189 86.979282 
L 549.06049 89.25386 
L 549.082069 91.528439 
L 549.107655 93.803017 
L 549.142299 96.077596 
L 549.191065 98.352174 
L 549.258791 100.626752 
L 549.349863 102.901331 
L 549.468165 105.175909 
L 549.61739 107.450488 
L 549.801811 109.725066 
L 550.027235 111.999645 
L 550.301627 114.274223 
L 550.634822 116.548801 
L 551.037097 118.82338 
L 551.516827 121.097958 
L 552.07785 123.372537 
L 552.717218 125.647115 
L 553.423866 127.921694 
L 554.178639 130.196272 
L 554.956124 132.47085 
L 555.728727 134.745429 
L 556.472912 137.020007 
L 557.176474 139.294586 
L 557.844416 141.569164 
L 558.500489 143.843743 
L 559.182338 146.118321 
L 559.930535 148.392899 
L 560.774555 150.667478 
L 561.720547 152.942056 
L 562.745553 155.216635 
L 563.800512 157.491213 
L 564.820974 159.765792 
L 565.741499 162.04037 
L 566.508592 164.314948 
L 567.088211 166.589527 
L 567.466767 168.864105 
L 567.647585 171.138684 
L 567.646423 173.413262 
L 567.488912 175.687841 
L 567.210288 177.962419 
L 566.855039 180.236997 
L 566.473073 182.511576 
L 566.110626 184.786154 
L 565.797577 187.060733 
L 565.536076 189.335311 
L 565.296231 191.60989 
L 565.022326 193.884468 
L 564.648586 196.159046 
L 564.11923 198.433625 
L 563.405517 200.708203 
L 562.513754 202.982782 
L 561.482075 205.25736 
L 560.368341 207.531939 
L 559.234718 209.806517 
L 558.134841 212.081095 
L 557.107224 214.355674 
L 556.175043 216.630252 
L 555.349677 218.904831 
L 554.634654 221.179409 
L 554.027906 223.453988 
L 553.522223 225.728566 
L 553.105137 228.003144 
L 552.759576 230.277723 
L 552.465704 232.552301 
L 552.20351 234.82688 
L 551.955304 237.101458 
L 551.70753 239.376037 
L 551.451771 241.650615 
L 551.185036 243.925193 
L 550.909411 246.199772 
L 550.631053 248.47435 
L 550.358556 250.748929 
L 550.100915 253.023507 
L 549.865599 255.298086 
L 549.657227 257.572664 
L 549.477154 259.847242 
L 549.323941 262.121821 
L 549.19436 264.396399 
L 549.084548 266.670978 
L 548.990959 268.945556 
z
" clip-path="url(#p38cdd4569f)" style="fill: #f2f2c2; fill-opacity: 0.7"/>
   </g>
   <g id="PolyCollection_7">
    <path d="M 663.107659 265.856477 
L 662.414784 265.856477 
L 662.339372 263.396513 
L 662.253339 260.936548 
L 662.15246 258.476584 
L 662.031283 256.01662 
L 661.884033 253.556655 
L 661.705882 251.096691 
L 661.494385 248.636726 
L 661.250786 246.176762 
L 660.980777 243.716798 
L 660.694267 241.256833 
L 660.4039 238.796869 
L 660.12237 236.336904 
L 659.859095 233.87694 
L 659.617137 231.416975 
L 659.391369 228.957011 
L 659.168546 226.497047 
L 658.929358 224.037082 
L 658.651842 221.577118 
L 658.315058 219.117153 
L 657.901822 216.657189 
L 657.399718 214.197225 
L 656.800385 211.73726 
L 656.098045 209.277296 
L 655.288811 206.817331 
L 654.372191 204.357367 
L 653.355083 201.897402 
L 652.256958 199.437438 
L 651.113525 196.977474 
L 649.976006 194.517509 
L 648.904494 192.057545 
L 647.956425 189.59758 
L 647.173604 187.137616 
L 646.572371 184.677652 
L 646.140522 182.217687 
L 645.842009 179.757723 
L 645.627454 177.297758 
L 645.446587 174.837794 
L 645.258738 172.377829 
L 645.039143 169.917865 
L 644.78102 167.457901 
L 644.494809 164.997936 
L 644.206061 162.537972 
L 643.952598 160.078007 
L 643.780532 157.618043 
L 643.738494 155.158079 
L 643.870016 152.698114 
L 644.205041 150.23815 
L 644.752448 147.778185 
L 645.495664 145.318221 
L 646.393057 142.858256 
L 647.383827 140.398292 
L 648.3988 137.938328 
L 649.374059 135.478363 
L 650.264119 133.018399 
L 651.050931 130.558434 
L 651.745765 128.09847 
L 652.383154 125.638506 
L 653.008676 123.178541 
L 653.66456 120.718577 
L 654.377721 118.258612 
L 655.153657 115.798648 
L 655.977273 113.338683 
L 656.819166 110.878719 
L 657.644404 108.418755 
L 658.420739 105.95879 
L 659.124162 103.498826 
L 659.741163 101.038861 
L 660.268149 98.578897 
L 660.709095 96.118933 
L 661.072544 93.658968 
L 661.368817 91.199004 
L 661.607967 88.739039 
L 661.798684 86.279075 
L 661.94805 83.81911 
L 662.061921 81.359146 
L 662.14555 78.899182 
L 662.204186 76.439217 
L 662.243444 73.979253 
L 662.269383 71.519288 
L 662.288312 69.059324 
L 662.306347 66.59936 
L 662.328754 64.139395 
L 662.359206 61.679431 
L 662.399151 59.219466 
L 662.447562 56.759502 
L 662.501231 54.299537 
L 662.555606 51.839573 
L 662.605888 49.379609 
L 662.648041 46.919644 
L 662.679415 44.45968 
L 662.698899 41.999715 
L 662.706739 39.539751 
L 662.704243 37.079787 
L 662.693554 34.619822 
L 662.677518 32.159858 
L 662.659524 29.699893 
L 662.643191 27.239929 
L 662.631834 24.779964 
L 662.627831 22.32 
L 662.894613 22.32 
L 662.894613 22.32 
L 662.890609 24.779964 
L 662.879252 27.239929 
L 662.862919 29.699893 
L 662.844925 32.159858 
L 662.828889 34.619822 
L 662.818201 37.079787 
L 662.815704 39.539751 
L 662.823544 41.999715 
L 662.843029 44.45968 
L 662.874403 46.919644 
L 662.916555 49.379609 
L 662.966837 51.839573 
L 663.021212 54.299537 
L 663.074881 56.759502 
L 663.123292 59.219466 
L 663.163238 61.679431 
L 663.193689 64.139395 
L 663.216096 66.59936 
L 663.234131 69.059324 
L 663.25306 71.519288 
L 663.278999 73.979253 
L 663.318257 76.439217 
L 663.376893 78.899182 
L 663.460522 81.359146 
L 663.574393 83.81911 
L 663.72376 86.279075 
L 663.914476 88.739039 
L 664.153626 91.199004 
L 664.449899 93.658968 
L 664.813348 96.118933 
L 665.254294 98.578897 
L 665.78128 101.038861 
L 666.398281 103.498826 
L 667.101704 105.95879 
L 667.878039 108.418755 
L 668.703277 110.878719 
L 669.54517 113.338683 
L 670.368787 115.798648 
L 671.144722 118.258612 
L 671.857883 120.718577 
L 672.513768 123.178541 
L 673.139289 125.638506 
L 673.776678 128.09847 
L 674.471512 130.558434 
L 675.258324 133.018399 
L 676.148385 135.478363 
L 677.123643 137.938328 
L 678.138616 140.398292 
L 679.129386 142.858256 
L 680.026779 145.318221 
L 680.769995 147.778185 
L 681.317403 150.23815 
L 681.652428 152.698114 
L 681.783949 155.158079 
L 681.741912 157.618043 
L 681.569845 160.078007 
L 681.316382 162.537972 
L 681.027634 164.997936 
L 680.741423 167.457901 
L 680.4833 169.917865 
L 680.263705 172.377829 
L 680.075856 174.837794 
L 679.894989 177.297758 
L 679.680434 179.757723 
L 679.381921 182.217687 
L 678.950072 184.677652 
L 678.348839 187.137616 
L 677.566018 189.59758 
L 676.617949 192.057545 
L 675.546437 194.517509 
L 674.408918 196.977474 
L 673.265485 199.437438 
L 672.16736 201.897402 
L 671.150252 204.357367 
L 670.233632 206.817331 
L 669.424399 209.277296 
L 668.722058 211.73726 
L 668.122725 214.197225 
L 667.620621 216.657189 
L 667.207386 219.117153 
L 666.870601 221.577118 
L 666.593086 224.037082 
L 666.353897 226.497047 
L 666.131074 228.957011 
L 665.905306 231.416975 
L 665.663348 233.87694 
L 665.400073 236.336904 
L 665.118544 238.796869 
L 664.828176 241.256833 
L 664.541666 243.716798 
L 664.271657 246.176762 
L 664.028059 248.636726 
L 663.816562 251.096691 
L 663.63841 253.556655 
L 663.49116 256.01662 
L 663.369983 258.476584 
L 663.269104 260.936548 
L 663.183071 263.396513 
L 663.107659 265.856477 
z
" clip-path="url(#p38cdd4569f)" style="fill: #ddd6c9; fill-opacity: 0.7"/>
   </g>
   <g id="matplotlib.axis_1">
    <g id="xtick_1">
     <g id="line2d_1">
      <defs>
       <path id="m6c3acc7b86" d="M 0 0 
L 0 3.5 
" style="stroke: #000000; stroke-width: 0.8"/>
      </defs>
      <g>
       <use xlink:href="#m6c3acc7b86" x="92.079403" y="339.84" style="stroke: #000000; stroke-width: 0.8"/>
      </g>
     </g>
     <g id="text_1">
      <!-- 0.25 -->
      <g transform="translate(80.946591 354.438437)scale(0.1 -0.1)">
       <defs>
        <path id="DejaVuSans-30" d="M 2034 4250 
Q 1547 4250 1301 3770 
Q 1056 3291 1056 2328 
Q 1056 1369 1301 889 
Q 1547 409 2034 409 
Q 2525 409 2770 889 
Q 3016 1369 3016 2328 
Q 3016 3291 2770 3770 
Q 2525 4250 2034 4250 
z
M 2034 4750 
Q 2819 4750 3233 4129 
Q 3647 3509 3647 2328 
Q 3647 1150 3233 529 
Q 2819 -91 2034 -91 
Q 1250 -91 836 529 
Q 422 1150 422 2328 
Q 422 3509 836 4129 
Q 1250 4750 2034 4750 
z
" transform="scale(0.015625)"/>
        <path id="DejaVuSans-2e" d="M 684 794 
L 1344 794 
L 1344 0 
L 684 0 
L 684 794 
z
" transform="scale(0.015625)"/>
        <path id="DejaVuSans-32" d="M 1228 531 
L 3431 531 
L 3431 0 
L 469 0 
L 469 531 
Q 828 903 1448 1529 
Q 2069 2156 2228 2338 
Q 2531 2678 2651 2914 
Q 2772 3150 2772 3378 
Q 2772 3750 2511 3984 
Q 2250 4219 1831 4219 
Q 1534 4219 1204 4116 
Q 875 4013 500 3803 
L 500 4441 
Q 881 4594 1212 4672 
Q 1544 4750 1819 4750 
Q 2544 4750 2975 4387 
Q 3406 4025 3406 3419 
Q 3406 3131 3298 2873 
Q 3191 2616 2906 2266 
Q 2828 2175 2409 1742 
Q 1991 1309 1228 531 
z
" transform="scale(0.015625)"/>
        <path id="DejaVuSans-35" d="M 691 4666 
L 3169 4666 
L 3169 4134 
L 1269 4134 
L 1269 2991 
Q 1406 3038 1543 3061 
Q 1681 3084 1819 3084 
Q 2600 3084 3056 2656 
Q 3513 2228 3513 1497 
Q 3513 744 3044 326 
Q 2575 -91 1722 -91 
Q 1428 -91 1123 -41 
Q 819 9 494 109 
L 494 744 
Q 775 591 1075 516 
Q 1375 441 1709 441 
Q 2250 441 2565 725 
Q 2881 1009 2881 1497 
Q 2881 1984 2565 2268 
Q 2250 2553 1709 2553 
Q 1456 2553 1204 2497 
Q 953 2441 691 2322 
L 691 4666 
z
" transform="scale(0.015625)"/>
       </defs>
       <use xlink:href="#DejaVuSans-30"/>
       <use xlink:href="#DejaVuSans-2e" x="63.623047"/>
       <use xlink:href="#DejaVuSans-32" x="95.410156"/>
       <use xlink:href="#DejaVuSans-35" x="159.033203"/>
      </g>
     </g>
    </g>
    <g id="xtick_2">
     <g id="line2d_2">
      <g>
       <use xlink:href="#m6c3acc7b86" x="206.215767" y="339.84" style="stroke: #000000; stroke-width: 0.8"/>
      </g>
     </g>
     <g id="text_2">
      <!-- 0.5 -->
      <g transform="translate(198.264205 354.438437)scale(0.1 -0.1)">
       <use xlink:href="#DejaVuSans-30"/>
       <use xlink:href="#DejaVuSans-2e" x="63.623047"/>
       <use xlink:href="#DejaVuSans-35" x="95.410156"/>
      </g>
     </g>
    </g>
    <g id="xtick_3">
     <g id="line2d_3">
      <g>
       <use xlink:href="#m6c3acc7b86" x="320.352131" y="339.84" style="stroke: #000000; stroke-width: 0.8"/>
      </g>
     </g>
     <g id="text_3">
      <!-- 0.75 -->
      <g transform="translate(309.219318 354.438437)scale(0.1 -0.1)">
       <defs>
        <path id="DejaVuSans-37" d="M 525 4666 
L 3525 4666 
L 3525 4397 
L 1831 0 
L 1172 0 
L 2766 4134 
L 525 4134 
L 525 4666 
z
" transform="scale(0.015625)"/>
       </defs>
       <use xlink:href="#DejaVuSans-30"/>
       <use xlink:href="#DejaVuSans-2e" x="63.623047"/>
       <use xlink:href="#DejaVuSans-37" x="95.410156"/>
       <use xlink:href="#DejaVuSans-35" x="159.033203"/>
      </g>
     </g>
    </g>
    <g id="xtick_4">
     <g id="line2d_4">
      <g>
       <use xlink:href="#m6c3acc7b86" x="411.661222" y="339.84" style="stroke: #000000; stroke-width: 0.8"/>
      </g>
     </g>
     <g id="text_4">
      <!-- 0.95 -->
      <g transform="translate(400.528409 354.438437)scale(0.1 -0.1)">
       <defs>
        <path id="DejaVuSans-39" d="M 703 97 
L 703 672 
Q 941 559 1184 500 
Q 1428 441 1663 441 
Q 2288 441 2617 861 
Q 2947 1281 2994 2138 
Q 2813 1869 2534 1725 
Q 2256 1581 1919 1581 
Q 1219 1581 811 2004 
Q 403 2428 403 3163 
Q 403 3881 828 4315 
Q 1253 4750 1959 4750 
Q 2769 4750 3195 4129 
Q 3622 3509 3622 2328 
Q 3622 1225 3098 567 
Q 2575 -91 1691 -91 
Q 1453 -91 1209 -44 
Q 966 3 703 97 
z
M 1959 2075 
Q 2384 2075 2632 2365 
Q 2881 2656 2881 3163 
Q 2881 3666 2632 3958 
Q 2384 4250 1959 4250 
Q 1534 4250 1286 3958 
Q 1038 3666 1038 3163 
Q 1038 2656 1286 2365 
Q 1534 2075 1959 2075 
z
" transform="scale(0.015625)"/>
       </defs>
       <use xlink:href="#DejaVuSans-30"/>
       <use xlink:href="#DejaVuSans-2e" x="63.623047"/>
       <use xlink:href="#DejaVuSans-39" x="95.410156"/>
       <use xlink:href="#DejaVuSans-35" x="159.033203"/>
      </g>
     </g>
    </g>
    <g id="xtick_5">
     <g id="line2d_5">
      <g>
       <use xlink:href="#m6c3acc7b86" x="457.315767" y="339.84" style="stroke: #000000; stroke-width: 0.8"/>
      </g>
     </g>
     <g id="text_5">
      <!-- 1.05 -->
      <g transform="translate(446.182955 354.438437)scale(0.1 -0.1)">
       <defs>
        <path id="DejaVuSans-31" d="M 794 531 
L 1825 531 
L 1825 4091 
L 703 3866 
L 703 4441 
L 1819 4666 
L 2450 4666 
L 2450 531 
L 3481 531 
L 3481 0 
L 794 0 
L 794 531 
z
" transform="scale(0.015625)"/>
       </defs>
       <use xlink:href="#DejaVuSans-31"/>
       <use xlink:href="#DejaVuSans-2e" x="63.623047"/>
       <use xlink:href="#DejaVuSans-30" x="95.410156"/>
       <use xlink:href="#DejaVuSans-35" x="159.033203"/>
      </g>
     </g>
    </g>
    <g id="xtick_6">
     <g id="line2d_6">
      <g>
       <use xlink:href="#m6c3acc7b86" x="548.624858" y="339.84" style="stroke: #000000; stroke-width: 0.8"/>
      </g>
     </g>
     <g id="text_6">
      <!-- 1.25 -->
      <g transform="translate(537.492045 354.438437)scale(0.1 -0.1)">
       <use xlink:href="#DejaVuSans-31"/>
       <use xlink:href="#DejaVuSans-2e" x="63.623047"/>
       <use xlink:href="#DejaVuSans-32" x="95.410156"/>
       <use xlink:href="#DejaVuSans-35" x="159.033203"/>
      </g>
     </g>
    </g>
    <g id="xtick_7">
     <g id="line2d_7">
      <g>
       <use xlink:href="#m6c3acc7b86" x="662.761222" y="339.84" style="stroke: #000000; stroke-width: 0.8"/>
      </g>
     </g>
     <g id="text_7">
      <!-- 1.5 -->
      <g transform="translate(654.809659 354.438437)scale(0.1 -0.1)">
       <use xlink:href="#DejaVuSans-31"/>
       <use xlink:href="#DejaVuSans-2e" x="63.623047"/>
       <use xlink:href="#DejaVuSans-35" x="95.410156"/>
      </g>
     </g>
    </g>
    <g id="text_8">
     <!-- CFG Scale -->
     <g transform="translate(352.136719 368.116562)scale(0.1 -0.1)">
      <defs>
       <path id="DejaVuSans-43" d="M 4122 4306 
L 4122 3641 
Q 3803 3938 3442 4084 
Q 3081 4231 2675 4231 
Q 1875 4231 1450 3742 
Q 1025 3253 1025 2328 
Q 1025 1406 1450 917 
Q 1875 428 2675 428 
Q 3081 428 3442 575 
Q 3803 722 4122 1019 
L 4122 359 
Q 3791 134 3420 21 
Q 3050 -91 2638 -91 
Q 1578 -91 968 557 
Q 359 1206 359 2328 
Q 359 3453 968 4101 
Q 1578 4750 2638 4750 
Q 3056 4750 3426 4639 
Q 3797 4528 4122 4306 
z
" transform="scale(0.015625)"/>
       <path id="DejaVuSans-46" d="M 628 4666 
L 3309 4666 
L 3309 4134 
L 1259 4134 
L 1259 2759 
L 3109 2759 
L 3109 2228 
L 1259 2228 
L 1259 0 
L 628 0 
L 628 4666 
z
" transform="scale(0.015625)"/>
       <path id="DejaVuSans-47" d="M 3809 666 
L 3809 1919 
L 2778 1919 
L 2778 2438 
L 4434 2438 
L 4434 434 
Q 4069 175 3628 42 
Q 3188 -91 2688 -91 
Q 1594 -91 976 548 
Q 359 1188 359 2328 
Q 359 3472 976 4111 
Q 1594 4750 2688 4750 
Q 3144 4750 3555 4637 
Q 3966 4525 4313 4306 
L 4313 3634 
Q 3963 3931 3569 4081 
Q 3175 4231 2741 4231 
Q 1884 4231 1454 3753 
Q 1025 3275 1025 2328 
Q 1025 1384 1454 906 
Q 1884 428 2741 428 
Q 3075 428 3337 486 
Q 3600 544 3809 666 
z
" transform="scale(0.015625)"/>
       <path id="DejaVuSans-20" transform="scale(0.015625)"/>
       <path id="DejaVuSans-53" d="M 3425 4513 
L 3425 3897 
Q 3066 4069 2747 4153 
Q 2428 4238 2131 4238 
Q 1616 4238 1336 4038 
Q 1056 3838 1056 3469 
Q 1056 3159 1242 3001 
Q 1428 2844 1947 2747 
L 2328 2669 
Q 3034 2534 3370 2195 
Q 3706 1856 3706 1288 
Q 3706 609 3251 259 
Q 2797 -91 1919 -91 
Q 1588 -91 1214 -16 
Q 841 59 441 206 
L 441 856 
Q 825 641 1194 531 
Q 1563 422 1919 422 
Q 2459 422 2753 634 
Q 3047 847 3047 1241 
Q 3047 1584 2836 1778 
Q 2625 1972 2144 2069 
L 1759 2144 
Q 1053 2284 737 2584 
Q 422 2884 422 3419 
Q 422 4038 858 4394 
Q 1294 4750 2059 4750 
Q 2388 4750 2728 4690 
Q 3069 4631 3425 4513 
z
" transform="scale(0.015625)"/>
       <path id="DejaVuSans-63" d="M 3122 3366 
L 3122 2828 
Q 2878 2963 2633 3030 
Q 2388 3097 2138 3097 
Q 1578 3097 1268 2742 
Q 959 2388 959 1747 
Q 959 1106 1268 751 
Q 1578 397 2138 397 
Q 2388 397 2633 464 
Q 2878 531 3122 666 
L 3122 134 
Q 2881 22 2623 -34 
Q 2366 -91 2075 -91 
Q 1284 -91 818 406 
Q 353 903 353 1747 
Q 353 2603 823 3093 
Q 1294 3584 2113 3584 
Q 2378 3584 2631 3529 
Q 2884 3475 3122 3366 
z
" transform="scale(0.015625)"/>
       <path id="DejaVuSans-61" d="M 2194 1759 
Q 1497 1759 1228 1600 
Q 959 1441 959 1056 
Q 959 750 1161 570 
Q 1363 391 1709 391 
Q 2188 391 2477 730 
Q 2766 1069 2766 1631 
L 2766 1759 
L 2194 1759 
z
M 3341 1997 
L 3341 0 
L 2766 0 
L 2766 531 
Q 2569 213 2275 61 
Q 1981 -91 1556 -91 
Q 1019 -91 701 211 
Q 384 513 384 1019 
Q 384 1609 779 1909 
Q 1175 2209 1959 2209 
L 2766 2209 
L 2766 2266 
Q 2766 2663 2505 2880 
Q 2244 3097 1772 3097 
Q 1472 3097 1187 3025 
Q 903 2953 641 2809 
L 641 3341 
Q 956 3463 1253 3523 
Q 1550 3584 1831 3584 
Q 2591 3584 2966 3190 
Q 3341 2797 3341 1997 
z
" transform="scale(0.015625)"/>
       <path id="DejaVuSans-6c" d="M 603 4863 
L 1178 4863 
L 1178 0 
L 603 0 
L 603 4863 
z
" transform="scale(0.015625)"/>
       <path id="DejaVuSans-65" d="M 3597 1894 
L 3597 1613 
L 953 1613 
Q 991 1019 1311 708 
Q 1631 397 2203 397 
Q 2534 397 2845 478 
Q 3156 559 3463 722 
L 3463 178 
Q 3153 47 2828 -22 
Q 2503 -91 2169 -91 
Q 1331 -91 842 396 
Q 353 884 353 1716 
Q 353 2575 817 3079 
Q 1281 3584 2069 3584 
Q 2775 3584 3186 3129 
Q 3597 2675 3597 1894 
z
M 3022 2063 
Q 3016 2534 2758 2815 
Q 2500 3097 2075 3097 
Q 1594 3097 1305 2825 
Q 1016 2553 972 2059 
L 3022 2063 
z
" transform="scale(0.015625)"/>
      </defs>
      <use xlink:href="#DejaVuSans-43"/>
      <use xlink:href="#DejaVuSans-46" x="69.824219"/>
      <use xlink:href="#DejaVuSans-47" x="127.34375"/>
      <use xlink:href="#DejaVuSans-20" x="204.833984"/>
      <use xlink:href="#DejaVuSans-53" x="236.621094"/>
      <use xlink:href="#DejaVuSans-63" x="300.097656"/>
      <use xlink:href="#DejaVuSans-61" x="355.078125"/>
      <use xlink:href="#DejaVuSans-6c" x="416.357422"/>
      <use xlink:href="#DejaVuSans-65" x="444.140625"/>
     </g>
    </g>
   </g>
   <g id="matplotlib.axis_2">
    <g id="ytick_1">
     <g id="line2d_8">
      <path d="M 42.620313 332.604234 
L 712.220313 332.604234 
" clip-path="url(#p38cdd4569f)" style="fill: none; stroke-dasharray: 2.96,1.28; stroke-dashoffset: 0; stroke: #b0b0b0; stroke-opacity: 0.6; stroke-width: 0.8"/>
     </g>
     <g id="line2d_9">
      <defs>
       <path id="me9ffe9534a" d="M 0 0 
L -3.5 0 
" style="stroke: #000000; stroke-width: 0.8"/>
      </defs>
      <g>
       <use xlink:href="#me9ffe9534a" x="42.620313" y="332.604234" style="stroke: #000000; stroke-width: 0.8"/>
      </g>
     </g>
     <g id="text_9">
      <!-- −2 -->
      <g transform="translate(20.878125 336.403453)scale(0.1 -0.1)">
       <defs>
        <path id="DejaVuSans-2212" d="M 678 2272 
L 4684 2272 
L 4684 1741 
L 678 1741 
L 678 2272 
z
" transform="scale(0.015625)"/>
       </defs>
       <use xlink:href="#DejaVuSans-2212"/>
       <use xlink:href="#DejaVuSans-32" x="83.789062"/>
      </g>
     </g>
    </g>
    <g id="ytick_2">
     <g id="line2d_10">
      <path d="M 42.620313 282.284886 
L 712.220313 282.284886 
" clip-path="url(#p38cdd4569f)" style="fill: none; stroke-dasharray: 2.96,1.28; stroke-dashoffset: 0; stroke: #b0b0b0; stroke-opacity: 0.6; stroke-width: 0.8"/>
     </g>
     <g id="line2d_11">
      <g>
       <use xlink:href="#me9ffe9534a" x="42.620313" y="282.284886" style="stroke: #000000; stroke-width: 0.8"/>
      </g>
     </g>
     <g id="text_10">
      <!-- 0 -->
      <g transform="translate(29.257813 286.084104)scale(0.1 -0.1)">
       <use xlink:href="#DejaVuSans-30"/>
      </g>
     </g>
    </g>
    <g id="ytick_3">
     <g id="line2d_12">
      <path d="M 42.620313 231.965537 
L 712.220313 231.965537 
" clip-path="url(#p38cdd4569f)" style="fill: none; stroke-dasharray: 2.96,1.28; stroke-dashoffset: 0; stroke: #b0b0b0; stroke-opacity: 0.6; stroke-width: 0.8"/>
     </g>
     <g id="line2d_13">
      <g>
       <use xlink:href="#me9ffe9534a" x="42.620313" y="231.965537" style="stroke: #000000; stroke-width: 0.8"/>
      </g>
     </g>
     <g id="text_11">
      <!-- 2 -->
      <g transform="translate(29.257813 235.764756)scale(0.1 -0.1)">
       <use xlink:href="#DejaVuSans-32"/>
      </g>
     </g>
    </g>
    <g id="ytick_4">
     <g id="line2d_14">
      <path d="M 42.620313 181.646189 
L 712.220313 181.646189 
" clip-path="url(#p38cdd4569f)" style="fill: none; stroke-dasharray: 2.96,1.28; stroke-dashoffset: 0; stroke: #b0b0b0; stroke-opacity: 0.6; stroke-width: 0.8"/>
     </g>
     <g id="line2d_15">
      <g>
       <use xlink:href="#me9ffe9534a" x="42.620313" y="181.646189" style="stroke: #000000; stroke-width: 0.8"/>
      </g>
     </g>
     <g id="text_12">
      <!-- 4 -->
      <g transform="translate(29.257813 185.445407)scale(0.1 -0.1)">
       <defs>
        <path id="DejaVuSans-34" d="M 2419 4116 
L 825 1625 
L 2419 1625 
L 2419 4116 
z
M 2253 4666 
L 3047 4666 
L 3047 1625 
L 3713 1625 
L 3713 1100 
L 3047 1100 
L 3047 0 
L 2419 0 
L 2419 1100 
L 313 1100 
L 313 1709 
L 2253 4666 
z
" transform="scale(0.015625)"/>
       </defs>
       <use xlink:href="#DejaVuSans-34"/>
      </g>
     </g>
    </g>
    <g id="ytick_5">
     <g id="line2d_16">
      <path d="M 42.620313 131.32684 
L 712.220313 131.32684 
" clip-path="url(#p38cdd4569f)" style="fill: none; stroke-dasharray: 2.96,1.28; stroke-dashoffset: 0; stroke: #b0b0b0; stroke-opacity: 0.6; stroke-width: 0.8"/>
     </g>
     <g id="line2d_17">
      <g>
       <use xlink:href="#me9ffe9534a" x="42.620313" y="131.32684" style="stroke: #000000; stroke-width: 0.8"/>
      </g>
     </g>
     <g id="text_13">
      <!-- 6 -->
      <g transform="translate(29.257813 135.126059)scale(0.1 -0.1)">
       <defs>
        <path id="DejaVuSans-36" d="M 2113 2584 
Q 1688 2584 1439 2293 
Q 1191 2003 1191 1497 
Q 1191 994 1439 701 
Q 1688 409 2113 409 
Q 2538 409 2786 701 
Q 3034 994 3034 1497 
Q 3034 2003 2786 2293 
Q 2538 2584 2113 2584 
z
M 3366 4563 
L 3366 3988 
Q 3128 4100 2886 4159 
Q 2644 4219 2406 4219 
Q 1781 4219 1451 3797 
Q 1122 3375 1075 2522 
Q 1259 2794 1537 2939 
Q 1816 3084 2150 3084 
Q 2853 3084 3261 2657 
Q 3669 2231 3669 1497 
Q 3669 778 3244 343 
Q 2819 -91 2113 -91 
Q 1303 -91 875 529 
Q 447 1150 447 2328 
Q 447 3434 972 4092 
Q 1497 4750 2381 4750 
Q 2619 4750 2861 4703 
Q 3103 4656 3366 4563 
z
" transform="scale(0.015625)"/>
       </defs>
       <use xlink:href="#DejaVuSans-36"/>
      </g>
     </g>
    </g>
    <g id="ytick_6">
     <g id="line2d_18">
      <path d="M 42.620313 81.007491 
L 712.220313 81.007491 
" clip-path="url(#p38cdd4569f)" style="fill: none; stroke-dasharray: 2.96,1.28; stroke-dashoffset: 0; stroke: #b0b0b0; stroke-opacity: 0.6; stroke-width: 0.8"/>
     </g>
     <g id="line2d_19">
      <g>
       <use xlink:href="#me9ffe9534a" x="42.620313" y="81.007491" style="stroke: #000000; stroke-width: 0.8"/>
      </g>
     </g>
     <g id="text_14">
      <!-- 8 -->
      <g transform="translate(29.257813 84.80671)scale(0.1 -0.1)">
       <defs>
        <path id="DejaVuSans-38" d="M 2034 2216 
Q 1584 2216 1326 1975 
Q 1069 1734 1069 1313 
Q 1069 891 1326 650 
Q 1584 409 2034 409 
Q 2484 409 2743 651 
Q 3003 894 3003 1313 
Q 3003 1734 2745 1975 
Q 2488 2216 2034 2216 
z
M 1403 2484 
Q 997 2584 770 2862 
Q 544 3141 544 3541 
Q 544 4100 942 4425 
Q 1341 4750 2034 4750 
Q 2731 4750 3128 4425 
Q 3525 4100 3525 3541 
Q 3525 3141 3298 2862 
Q 3072 2584 2669 2484 
Q 3125 2378 3379 2068 
Q 3634 1759 3634 1313 
Q 3634 634 3220 271 
Q 2806 -91 2034 -91 
Q 1263 -91 848 271 
Q 434 634 434 1313 
Q 434 1759 690 2068 
Q 947 2378 1403 2484 
z
M 1172 3481 
Q 1172 3119 1398 2916 
Q 1625 2713 2034 2713 
Q 2441 2713 2670 2916 
Q 2900 3119 2900 3481 
Q 2900 3844 2670 4047 
Q 2441 4250 2034 4250 
Q 1625 4250 1398 4047 
Q 1172 3844 1172 3481 
z
" transform="scale(0.015625)"/>
       </defs>
       <use xlink:href="#DejaVuSans-38"/>
      </g>
     </g>
    </g>
    <g id="ytick_7">
     <g id="line2d_20">
      <path d="M 42.620313 30.688143 
L 712.220313 30.688143 
" clip-path="url(#p38cdd4569f)" style="fill: none; stroke-dasharray: 2.96,1.28; stroke-dashoffset: 0; stroke: #b0b0b0; stroke-opacity: 0.6; stroke-width: 0.8"/>
     </g>
     <g id="line2d_21">
      <g>
       <use xlink:href="#me9ffe9534a" x="42.620313" y="30.688143" style="stroke: #000000; stroke-width: 0.8"/>
      </g>
     </g>
     <g id="text_15">
      <!-- 10 -->
      <g transform="translate(22.895313 34.487362)scale(0.1 -0.1)">
       <use xlink:href="#DejaVuSans-31"/>
       <use xlink:href="#DejaVuSans-30" x="63.623047"/>
      </g>
     </g>
    </g>
    <g id="text_16">
     <!-- Exposure Value Change -->
     <g transform="translate(14.798438 232.718437)rotate(-90)scale(0.1 -0.1)">
      <defs>
       <path id="DejaVuSans-45" d="M 628 4666 
L 3578 4666 
L 3578 4134 
L 1259 4134 
L 1259 2753 
L 3481 2753 
L 3481 2222 
L 1259 2222 
L 1259 531 
L 3634 531 
L 3634 0 
L 628 0 
L 628 4666 
z
" transform="scale(0.015625)"/>
       <path id="DejaVuSans-78" d="M 3513 3500 
L 2247 1797 
L 3578 0 
L 2900 0 
L 1881 1375 
L 863 0 
L 184 0 
L 1544 1831 
L 300 3500 
L 978 3500 
L 1906 2253 
L 2834 3500 
L 3513 3500 
z
" transform="scale(0.015625)"/>
       <path id="DejaVuSans-70" d="M 1159 525 
L 1159 -1331 
L 581 -1331 
L 581 3500 
L 1159 3500 
L 1159 2969 
Q 1341 3281 1617 3432 
Q 1894 3584 2278 3584 
Q 2916 3584 3314 3078 
Q 3713 2572 3713 1747 
Q 3713 922 3314 415 
Q 2916 -91 2278 -91 
Q 1894 -91 1617 61 
Q 1341 213 1159 525 
z
M 3116 1747 
Q 3116 2381 2855 2742 
Q 2594 3103 2138 3103 
Q 1681 3103 1420 2742 
Q 1159 2381 1159 1747 
Q 1159 1113 1420 752 
Q 1681 391 2138 391 
Q 2594 391 2855 752 
Q 3116 1113 3116 1747 
z
" transform="scale(0.015625)"/>
       <path id="DejaVuSans-6f" d="M 1959 3097 
Q 1497 3097 1228 2736 
Q 959 2375 959 1747 
Q 959 1119 1226 758 
Q 1494 397 1959 397 
Q 2419 397 2687 759 
Q 2956 1122 2956 1747 
Q 2956 2369 2687 2733 
Q 2419 3097 1959 3097 
z
M 1959 3584 
Q 2709 3584 3137 3096 
Q 3566 2609 3566 1747 
Q 3566 888 3137 398 
Q 2709 -91 1959 -91 
Q 1206 -91 779 398 
Q 353 888 353 1747 
Q 353 2609 779 3096 
Q 1206 3584 1959 3584 
z
" transform="scale(0.015625)"/>
       <path id="DejaVuSans-73" d="M 2834 3397 
L 2834 2853 
Q 2591 2978 2328 3040 
Q 2066 3103 1784 3103 
Q 1356 3103 1142 2972 
Q 928 2841 928 2578 
Q 928 2378 1081 2264 
Q 1234 2150 1697 2047 
L 1894 2003 
Q 2506 1872 2764 1633 
Q 3022 1394 3022 966 
Q 3022 478 2636 193 
Q 2250 -91 1575 -91 
Q 1294 -91 989 -36 
Q 684 19 347 128 
L 347 722 
Q 666 556 975 473 
Q 1284 391 1588 391 
Q 1994 391 2212 530 
Q 2431 669 2431 922 
Q 2431 1156 2273 1281 
Q 2116 1406 1581 1522 
L 1381 1569 
Q 847 1681 609 1914 
Q 372 2147 372 2553 
Q 372 3047 722 3315 
Q 1072 3584 1716 3584 
Q 2034 3584 2315 3537 
Q 2597 3491 2834 3397 
z
" transform="scale(0.015625)"/>
       <path id="DejaVuSans-75" d="M 544 1381 
L 544 3500 
L 1119 3500 
L 1119 1403 
Q 1119 906 1312 657 
Q 1506 409 1894 409 
Q 2359 409 2629 706 
Q 2900 1003 2900 1516 
L 2900 3500 
L 3475 3500 
L 3475 0 
L 2900 0 
L 2900 538 
Q 2691 219 2414 64 
Q 2138 -91 1772 -91 
Q 1169 -91 856 284 
Q 544 659 544 1381 
z
M 1991 3584 
L 1991 3584 
z
" transform="scale(0.015625)"/>
       <path id="DejaVuSans-72" d="M 2631 2963 
Q 2534 3019 2420 3045 
Q 2306 3072 2169 3072 
Q 1681 3072 1420 2755 
Q 1159 2438 1159 1844 
L 1159 0 
L 581 0 
L 581 3500 
L 1159 3500 
L 1159 2956 
Q 1341 3275 1631 3429 
Q 1922 3584 2338 3584 
Q 2397 3584 2469 3576 
Q 2541 3569 2628 3553 
L 2631 2963 
z
" transform="scale(0.015625)"/>
       <path id="DejaVuSans-56" d="M 1831 0 
L 50 4666 
L 709 4666 
L 2188 738 
L 3669 4666 
L 4325 4666 
L 2547 0 
L 1831 0 
z
" transform="scale(0.015625)"/>
       <path id="DejaVuSans-68" d="M 3513 2113 
L 3513 0 
L 2938 0 
L 2938 2094 
Q 2938 2591 2744 2837 
Q 2550 3084 2163 3084 
Q 1697 3084 1428 2787 
Q 1159 2491 1159 1978 
L 1159 0 
L 581 0 
L 581 4863 
L 1159 4863 
L 1159 2956 
Q 1366 3272 1645 3428 
Q 1925 3584 2291 3584 
Q 2894 3584 3203 3211 
Q 3513 2838 3513 2113 
z
" transform="scale(0.015625)"/>
       <path id="DejaVuSans-6e" d="M 3513 2113 
L 3513 0 
L 2938 0 
L 2938 2094 
Q 2938 2591 2744 2837 
Q 2550 3084 2163 3084 
Q 1697 3084 1428 2787 
Q 1159 2491 1159 1978 
L 1159 0 
L 581 0 
L 581 3500 
L 1159 3500 
L 1159 2956 
Q 1366 3272 1645 3428 
Q 1925 3584 2291 3584 
Q 2894 3584 3203 3211 
Q 3513 2838 3513 2113 
z
" transform="scale(0.015625)"/>
       <path id="DejaVuSans-67" d="M 2906 1791 
Q 2906 2416 2648 2759 
Q 2391 3103 1925 3103 
Q 1463 3103 1205 2759 
Q 947 2416 947 1791 
Q 947 1169 1205 825 
Q 1463 481 1925 481 
Q 2391 481 2648 825 
Q 2906 1169 2906 1791 
z
M 3481 434 
Q 3481 -459 3084 -895 
Q 2688 -1331 1869 -1331 
Q 1566 -1331 1297 -1286 
Q 1028 -1241 775 -1147 
L 775 -588 
Q 1028 -725 1275 -790 
Q 1522 -856 1778 -856 
Q 2344 -856 2625 -561 
Q 2906 -266 2906 331 
L 2906 616 
Q 2728 306 2450 153 
Q 2172 0 1784 0 
Q 1141 0 747 490 
Q 353 981 353 1791 
Q 353 2603 747 3093 
Q 1141 3584 1784 3584 
Q 2172 3584 2450 3431 
Q 2728 3278 2906 2969 
L 2906 3500 
L 3481 3500 
L 3481 434 
z
" transform="scale(0.015625)"/>
      </defs>
      <use xlink:href="#DejaVuSans-45"/>
      <use xlink:href="#DejaVuSans-78" x="63.183594"/>
      <use xlink:href="#DejaVuSans-70" x="122.363281"/>
      <use xlink:href="#DejaVuSans-6f" x="185.839844"/>
      <use xlink:href="#DejaVuSans-73" x="247.021484"/>
      <use xlink:href="#DejaVuSans-75" x="299.121094"/>
      <use xlink:href="#DejaVuSans-72" x="362.5"/>
      <use xlink:href="#DejaVuSans-65" x="401.363281"/>
      <use xlink:href="#DejaVuSans-20" x="462.886719"/>
      <use xlink:href="#DejaVuSans-56" x="494.673828"/>
      <use xlink:href="#DejaVuSans-61" x="555.332031"/>
      <use xlink:href="#DejaVuSans-6c" x="616.611328"/>
      <use xlink:href="#DejaVuSans-75" x="644.394531"/>
      <use xlink:href="#DejaVuSans-65" x="707.773438"/>
      <use xlink:href="#DejaVuSans-20" x="769.296875"/>
      <use xlink:href="#DejaVuSans-43" x="801.083984"/>
      <use xlink:href="#DejaVuSans-68" x="870.908203"/>
      <use xlink:href="#DejaVuSans-61" x="934.287109"/>
      <use xlink:href="#DejaVuSans-6e" x="995.566406"/>
      <use xlink:href="#DejaVuSans-67" x="1058.945312"/>
      <use xlink:href="#DejaVuSans-65" x="1122.421875"/>
     </g>
    </g>
   </g>
   <g id="line2d_22">
    <path d="M 92.079403 261.291108 
L 662.761222 157.477903 
L 662.761222 157.477903 
" clip-path="url(#p38cdd4569f)" style="fill: none; stroke: #696969; stroke-opacity: 0.9; stroke-linecap: square"/>
   </g>
   <g id="patch_3">
    <path d="M 42.620313 339.84 
L 42.620313 7.2 
" style="fill: none; stroke: #000000; stroke-width: 0.8; stroke-linejoin: miter; stroke-linecap: square"/>
   </g>
   <g id="patch_4">
    <path d="M 712.220313 339.84 
L 712.220313 7.2 
" style="fill: none; stroke: #000000; stroke-width: 0.8; stroke-linejoin: miter; stroke-linecap: square"/>
   </g>
   <g id="patch_5">
    <path d="M 42.620313 339.84 
L 712.220313 339.84 
" style="fill: none; stroke: #000000; stroke-width: 0.8; stroke-linejoin: miter; stroke-linecap: square"/>
   </g>
   <g id="patch_6">
    <path d="M 42.620313 7.2 
L 712.220313 7.2 
" style="fill: none; stroke: #000000; stroke-width: 0.8; stroke-linejoin: miter; stroke-linecap: square"/>
   </g>
   <g id="PathCollection_1">
    <defs>
     <path id="m48e09836e0" d="M 0 2.236068 
C 0.593012 2.236068 1.161816 2.000462 1.581139 1.581139 
C 2.000462 1.161816 2.236068 0.593012 2.236068 0 
C 2.236068 -0.593012 2.000462 -1.161816 1.581139 -1.581139 
C 1.161816 -2.000462 0.593012 -2.236068 0 -2.236068 
C -0.593012 -2.236068 -1.161816 -2.000462 -1.581139 -1.581139 
C -2.000462 -1.161816 -2.236068 -0.593012 -2.236068 0 
C -2.236068 0.593012 -2.000462 1.161816 -1.581139 1.581139 
C -1.161816 2.000462 -0.593012 2.236068 0 2.236068 
z
" style="stroke: #696969"/>
    </defs>
    <g clip-path="url(#p38cdd4569f)">
     <use xlink:href="#m48e09836e0" x="92.079403" y="265.880606" style="fill: #696969; stroke: #696969"/>
     <use xlink:href="#m48e09836e0" x="206.215767" y="240.263605" style="fill: #696969; stroke: #696969"/>
     <use xlink:href="#m48e09836e0" x="320.352131" y="216.910547" style="fill: #696969; stroke: #696969"/>
     <use xlink:href="#m48e09836e0" x="411.661222" y="199.721404" style="fill: #696969; stroke: #696969"/>
     <use xlink:href="#m48e09836e0" x="457.315767" y="191.806057" style="fill: #696969; stroke: #696969"/>
     <use xlink:href="#m48e09836e0" x="548.624858" y="177.9541" style="fill: #696969; stroke: #696969"/>
     <use xlink:href="#m48e09836e0" x="662.761222" y="162.7739" style="fill: #696969; stroke: #696969"/>
    </g>
   </g>
  </g>
 </g>
 <defs>
  <clipPath id="p38cdd4569f">
   <rect x="42.620313" y="7.2" width="669.6" height="332.64"/>
  </clipPath>
 </defs>
</svg>
